<svg xmlns="http://www.w3.org/2000/svg" xmlns:xlink="http://www.w3.org/1999/xlink" xml:lang="en" height="351.20000000000005pt" width="740.8939999999999pt" viewBox="-142.39000000000001 -184.60000000000002 740.8939999999999 351.20000000000005"><circle cx="331.284" cy="-112.68" r="4.32" style="stroke:black;fill:none;stroke-width:2.0;stroke-dasharray:-;" /><circle cx="331.284" cy="-85.32" r="4.32" style="stroke:black;fill:none;stroke-width:2.0;stroke-dasharray:-;" /><path d="M 126.0,72.0 L 223.284,72 L 223.284,-180 L 126,-180 L 126,72" style="stroke:black;fill:none;stroke-width:2.0;stroke-dasharray:-;stroke-linecap:round;stroke-linejoin:round;" /><path d="M 126.0,-0.0 L 108,-0" style="stroke:black;fill:none;stroke-width:2.0;stroke-dasharray:-;stroke-linecap:round;stroke-linejoin:round;" /><path d="M 126.0,-36.0 L 108,-36" style="stroke:black;fill:none;stroke-width:2.0;stroke-dasharray:-;stroke-linecap:round;stroke-linejoin:round;" /><path d="M 126.0,-72.0 L 108,-72" style="stroke:black;fill:none;stroke-width:2.0;stroke-dasharray:-;stroke-linecap:round;stroke-linejoin:round;" /><path d="M 126.0,-108.0 L 108,-108" style="stroke:black;fill:none;stroke-width:2.0;stroke-dasharray:-;stroke-linecap:round;stroke-linejoin:round;" /><path d="M 223.28400000000002,54.0 L 241.284,54" style="stroke:black;fill:none;stroke-width:2.0;stroke-dasharray:-;stroke-linecap:round;stroke-linejoin:round;" /><path d="M 223.28400000000002,18.0 L 241.284,18" style="stroke:black;fill:none;stroke-width:2.0;stroke-dasharray:-;stroke-linecap:round;stroke-linejoin:round;" /><path d="M 223.28400000000002,-18.0 L 241.284,-18" style="stroke:black;fill:none;stroke-width:2.0;stroke-dasharray:-;stroke-linecap:round;stroke-linejoin:round;" /><path d="M 223.28400000000002,-54.0 L 241.284,-54" style="stroke:black;fill:none;stroke-width:2.0;stroke-dasharray:-;stroke-linecap:round;stroke-linejoin:round;" /><path d="M 223.28400000000002,-90.0 L 241.284,-90" style="stroke:black;fill:none;stroke-width:2.0;stroke-dasharray:-;stroke-linecap:round;stroke-linejoin:round;" /><path d="M 223.28400000000002,-126.0 L 241.284,-126" style="stroke:black;fill:none;stroke-width:2.0;stroke-dasharray:-;stroke-linecap:round;stroke-linejoin:round;" /><path d="M 223.28400000000002,-162.0 L 241.284,-162" style="stroke:black;fill:none;stroke-width:2.0;stroke-dasharray:-;stroke-linecap:round;stroke-linejoin:round;" /><path d="M 108.0,-0.0 L 72,-0 L 36,-0" style="stroke:black;fill:none;stroke-width:2.0;stroke-dasharray:-;stroke-linecap:round;stroke-linejoin:round;" /><path d="M 108.0,-36.0 L 90,-36 L 72,-36" style="stroke:black;fill:none;stroke-width:2.0;stroke-dasharray:-;stroke-linecap:round;stroke-linejoin:round;" /><path d="M 72.0,-36.00000000000001 L 72,-0 L 72,36" style="stroke:black;fill:none;stroke-width:2.0;stroke-dasharray:-;stroke-linecap:round;stroke-linejoin:round;" /><path d="M 71.99999999999999,35.999999999999986 L 90,36 L 108,36" style="stroke:black;fill:none;stroke-width:2.0;stroke-dasharray:-;stroke-linecap:round;stroke-linejoin:round;" /><path d="M 108.0,-36.0 L 90,-36 L 72,-36" style="stroke:black;fill:none;stroke-width:2.0;stroke-dasharray:-;stroke-linecap:round;stroke-linejoin:round;" /><path d="M 72.0,-36.0 L 72,-21.6 L 63,-21.6 L 81,-21.6 M 65.7,-17.28 L 78.3,-17.28 M 70.2,-12.96 L 73.8,-12.96" style="stroke:black;fill:none;stroke-width:2.0;stroke-dasharray:-;stroke-linecap:round;stroke-linejoin:round;" /><path d="M 108.0,-72.0 L 86.4,-72 L 64.8,-72" style="stroke:black;fill:none;stroke-width:2.0;stroke-dasharray:-;stroke-linecap:round;stroke-linejoin:round;" /><path d="M 367.284,35.99999999999999 L 277.284,36 L 277.284,144 L 367.284,144 L 367.284,36" style="stroke:black;fill:none;stroke-width:2.0;stroke-dasharray:-;stroke-linecap:round;stroke-linejoin:round;" /><path d="M 367.284,54.0 L 385.284,54" style="stroke:black;fill:none;stroke-width:2.0;stroke-dasharray:-;stroke-linecap:round;stroke-linejoin:round;" /><path d="M 367.284,90.0 L 385.284,90" style="stroke:black;fill:none;stroke-width:2.0;stroke-dasharray:-;stroke-linecap:round;stroke-linejoin:round;" /><path d="M 367.284,126.0 L 385.284,126" style="stroke:black;fill:none;stroke-width:2.0;stroke-dasharray:-;stroke-linecap:round;stroke-linejoin:round;" /><path d="M 277.284,71.99999999999999 L 259.284,72" style="stroke:black;fill:none;stroke-width:2.0;stroke-dasharray:-;stroke-linecap:round;stroke-linejoin:round;" /><path d="M 277.284,107.99999999999999 L 259.284,108" style="stroke:black;fill:none;stroke-width:2.0;stroke-dasharray:-;stroke-linecap:round;stroke-linejoin:round;" /><path d="M 322.284,144.0 L 322.284,162" style="stroke:black;fill:none;stroke-width:2.0;stroke-dasharray:-;stroke-linecap:round;stroke-linejoin:round;" /><path d="M 322.284,35.99999999999999 L 322.284,18" style="stroke:black;fill:none;stroke-width:2.0;stroke-dasharray:-;stroke-linecap:round;stroke-linejoin:round;" /><path d="M 241.28400000000002,54.0 L 313.284,54 L 385.284,54" style="stroke:black;fill:none;stroke-width:2.0;stroke-dasharray:-;stroke-linecap:round;stroke-linejoin:round;" /><path d="M 241.28400000000002,18.0 L 313.284,54 L 385.284,90" style="stroke:black;fill:none;stroke-width:2.0;stroke-dasharray:-;stroke-linecap:round;stroke-linejoin:round;" /><path d="M 241.28400000000002,-18.0 L 313.284,54 L 385.284,126" style="stroke:black;fill:none;stroke-width:2.0;stroke-dasharray:-;stroke-linecap:round;stroke-linejoin:round;" /><path d="M 322.284,162.0 L 322.284,144 L 322.284,126" style="stroke:black;fill:none;stroke-width:2.0;stroke-dasharray:-;stroke-linecap:round;stroke-linejoin:round;" /><path d="M 322.284,17.999999999999993 L 322.284,36 L 322.284,54" style="stroke:black;fill:none;stroke-width:2.0;stroke-dasharray:-;stroke-linecap:round;stroke-linejoin:round;" /><path d="M 322.284,53.99999999999999 L 322.284,68.4 L 313.284,68.4 L 331.284,68.4 M 315.984,72.72 L 328.584,72.72 M 320.484,77.04 L 324.084,77.04" style="stroke:black;fill:none;stroke-width:2.0;stroke-dasharray:-;stroke-linecap:round;stroke-linejoin:round;" /><path d="M 259.284,71.99999999999999 L 295.284,72 L 331.284,72" style="stroke:black;fill:none;stroke-width:2.0;stroke-dasharray:-;stroke-linecap:round;stroke-linejoin:round;" /><path d="M 259.284,107.99999999999999 L 295.284,108 L 331.284,108" style="stroke:black;fill:none;stroke-width:2.0;stroke-dasharray:-;stroke-linecap:round;stroke-linejoin:round;" /><path d="M 241.28400000000002,-54.0 L 241.284,-72 L 232.284,-75 L 250.284,-81 L 232.284,-87 L 250.284,-93 L 232.284,-99 L 250.284,-105 L 241.284,-108 L 241.284,-126" style="stroke:black;fill:none;stroke-width:2.0;stroke-dasharray:-;stroke-linecap:round;stroke-linejoin:round;" /><path d="M 241.28400000000002,-126.0 L 241.284,-136.8 L 241.284,-147.6" style="stroke:black;fill:none;stroke-width:2.0;stroke-dasharray:-;stroke-linecap:round;stroke-linejoin:round;" /><path d="M 241.28400000000002,-54.0 L 268.284,-54 L 295.284,-54" style="stroke:black;fill:none;stroke-width:2.0;stroke-dasharray:-;stroke-linecap:round;stroke-linejoin:round;" /><path d="M 295.284,-54.0 L 295.284,-36 L 304.284,-36 L 304.284,-0 L 286.284,-0 L 286.284,-36 L 295.284,-36 M 295.284,-0 L 295.284,18" style="stroke:black;fill:none;stroke-width:2.0;stroke-dasharray:-;stroke-linecap:round;stroke-linejoin:round;" /><path d="M 279.084,-36.0 L 279.084,-28.8 L 311.484,-0" style="stroke:black;fill:none;stroke-width:2.0;stroke-dasharray:-;stroke-linecap:round;stroke-linejoin:round;" /><path d="M 295.284,18.0 L 295.284,27 L 295.284,36" style="stroke:black;fill:none;stroke-width:2.0;stroke-dasharray:-;stroke-linecap:round;stroke-linejoin:round;" /><path d="M 295.284,36.0 L 295.284,50.4 L 286.284,50.4 L 304.284,50.4 M 288.984,54.72 L 301.584,54.72 M 293.484,59.04 L 297.084,59.04" style="stroke:black;fill:none;stroke-width:2.0;stroke-dasharray:-;stroke-linecap:round;stroke-linejoin:round;" /><path d="M 241.28400000000002,-90.0 L 286.284,-90 L 331.284,-90" style="stroke:black;fill:none;stroke-width:2.0;stroke-dasharray:-;stroke-linecap:round;stroke-linejoin:round;" /><path d="M 331.284,-90.0 L 331.284,-72 L 340.284,-69 L 322.284,-63 L 340.284,-57 L 322.284,-51 L 340.284,-45 L 322.284,-39 L 331.284,-36 L 331.284,-18" style="stroke:black;fill:none;stroke-width:2.0;stroke-dasharray:-;stroke-linecap:round;stroke-linejoin:round;" /><path d="M 331.284,-18.0 L 331.284,-3.6 L 322.284,-3.6 L 340.284,-3.6 M 324.984,0.72 L 337.584,0.72 M 329.484,5.04 L 333.084,5.04" style="stroke:black;fill:none;stroke-width:2.0;stroke-dasharray:-;stroke-linecap:round;stroke-linejoin:round;" /><path d="M 349.284,-72.00000000000001 L 349.284,18 L 457.284,18 L 457.284,-72 L 349.284,-72" style="stroke:black;fill:none;stroke-width:2.0;stroke-dasharray:-;stroke-linecap:round;stroke-linejoin:round;" /><path d="M 403.284,-72.0 L 403.284,-90" style="stroke:black;fill:none;stroke-width:2.0;stroke-dasharray:-;stroke-linecap:round;stroke-linejoin:round;" /><path d="M 367.284,18.0 L 367.284,36" style="stroke:black;fill:none;stroke-width:2.0;stroke-dasharray:-;stroke-linecap:round;stroke-linejoin:round;" /><path d="M 403.284,18.0 L 403.284,36" style="stroke:black;fill:none;stroke-width:2.0;stroke-dasharray:-;stroke-linecap:round;stroke-linejoin:round;" /><path d="M 439.284,18.0 L 439.284,36" style="stroke:black;fill:none;stroke-width:2.0;stroke-dasharray:-;stroke-linecap:round;stroke-linejoin:round;" /><path d="M 457.284,-26.999999999999993 L 475.284,-27" style="stroke:black;fill:none;stroke-width:2.0;stroke-dasharray:-;stroke-linecap:round;stroke-linejoin:round;" /><path d="M 349.284,-27.000000000000007 L 331.284,-27" style="stroke:black;fill:none;stroke-width:2.0;stroke-dasharray:-;stroke-linecap:round;stroke-linejoin:round;" /><path d="M 331.284,-90.0 L 367.284,-90 L 403.284,-90" style="stroke:black;fill:none;stroke-width:2.0;stroke-dasharray:-;stroke-linecap:round;stroke-linejoin:round;" /><path d="M 475.284,-26.999999999999986 L 475.284,-45 L 475.284,-63" style="stroke:black;fill:none;stroke-width:2.0;stroke-dasharray:-;stroke-linecap:round;stroke-linejoin:round;" /><path d="M 331.284,-27.000000000000014 L 331.284,-9 L 331.284,9" style="stroke:black;fill:none;stroke-width:2.0;stroke-dasharray:-;stroke-linecap:round;stroke-linejoin:round;" /><path d="M 331.284,8.999999999999984 L 331.284,23.4 L 322.284,23.4 L 340.284,23.4 M 324.984,27.72 L 337.584,27.72 M 329.484,32.04 L 333.084,32.04" style="stroke:black;fill:none;stroke-width:2.0;stroke-dasharray:-;stroke-linecap:round;stroke-linejoin:round;" /><path d="M 367.284,36.0 L 403.284,36 L 439.284,36" style="stroke:black;fill:none;stroke-width:2.0;stroke-dasharray:-;stroke-linecap:round;stroke-linejoin:round;" /><path d="M 403.284,36.0 L 439.284,36 L 475.284,36" style="stroke:black;fill:none;stroke-width:2.0;stroke-dasharray:-;stroke-linecap:round;stroke-linejoin:round;" /><path d="M 439.284,36.0 L 475.284,36 L 511.284,36" style="stroke:black;fill:none;stroke-width:2.0;stroke-dasharray:-;stroke-linecap:round;stroke-linejoin:round;" /><path d="M 241.28400000000002,-126.0 L 286.284,-126 L 331.284,-126" style="stroke:black;fill:none;stroke-width:2.0;stroke-dasharray:-;stroke-linecap:round;stroke-linejoin:round;" /><path d="M 331.284,-126.0 L 331.284,-117 M 342.084,-112.68 L 342.084,-85.32 M 342.084,-99 L 349.284,-99 M 331.284,-81 L 331.284,-72" style="stroke:black;fill:none;stroke-width:2.0;stroke-dasharray:-;stroke-linecap:round;stroke-linejoin:round;" /><path d="M 331.284,-72.0 L 331.284,-57.6 L 322.284,-57.6 L 340.284,-57.6 M 324.984,-53.28 L 337.584,-53.28 M 329.484,-48.96 L 333.084,-48.96" style="stroke:black;fill:none;stroke-width:2.0;stroke-dasharray:-;stroke-linecap:round;stroke-linejoin:round;" /><path d="M 241.28400000000002,-162.0 L 286.284,-162 L 331.284,-162" style="stroke:black;fill:none;stroke-width:2.0;stroke-dasharray:-;stroke-linecap:round;stroke-linejoin:round;" /><text x="123.3" y="-13.700000000000006" dominant-baseline="ideographic" fill="black" font-size="11" font-family="sans" text-anchor="end"><tspan x="123.3" dy="11">+5V</tspan></text><text x="131.4" y="-14.0" dominant-baseline="central" fill="black" font-size="14" font-family="sans" text-anchor="start"><tspan x="131.4" dy="14">VIN</tspan></text><text x="123.3" y="-49.7" dominant-baseline="ideographic" fill="black" font-size="11" font-family="sans" text-anchor="end"><tspan x="123.3" dy="11">GND</tspan></text><text x="131.4" y="-50.0" dominant-baseline="central" fill="black" font-size="14" font-family="sans" text-anchor="start"><tspan x="131.4" dy="14">GND1</tspan></text><text x="123.3" y="-85.7" dominant-baseline="ideographic" fill="black" font-size="11" font-family="sans" text-anchor="end"><tspan x="123.3" dy="11">3V3</tspan></text><text x="131.4" y="-86.0" dominant-baseline="central" fill="black" font-size="14" font-family="sans" text-anchor="start"><tspan x="131.4" dy="14">V33</tspan></text><text x="123.3" y="-121.7" dominant-baseline="ideographic" fill="black" font-size="11" font-family="sans" text-anchor="end"><tspan x="123.3" dy="11">GND</tspan></text><text x="131.4" y="-122.0" dominant-baseline="central" fill="black" font-size="14" font-family="sans" text-anchor="start"><tspan x="131.4" dy="14">GND2</tspan></text><text x="225.984" y="40.300000000000004" dominant-baseline="ideographic" fill="black" font-size="11" font-family="sans" text-anchor="start"><tspan x="225.984" dy="11">GPIO18</tspan></text><text x="217.88400000000001" y="40.0" dominant-baseline="central" fill="black" font-size="14" font-family="sans" text-anchor="end"><tspan x="217.88400000000001" dy="14">SCK</tspan></text><text x="225.984" y="4.300000000000001" dominant-baseline="ideographic" fill="black" font-size="11" font-family="sans" text-anchor="start"><tspan x="225.984" dy="11">GPIO19</tspan></text><text x="217.88400000000001" y="4.0" dominant-baseline="central" fill="black" font-size="14" font-family="sans" text-anchor="end"><tspan x="217.88400000000001" dy="14">MISO</tspan></text><text x="225.984" y="-31.700000000000006" dominant-baseline="ideographic" fill="black" font-size="11" font-family="sans" text-anchor="start"><tspan x="225.984" dy="11">GPIO5</tspan></text><text x="217.88400000000001" y="-32.0" dominant-baseline="central" fill="black" font-size="14" font-family="sans" text-anchor="end"><tspan x="217.88400000000001" dy="14">CS</tspan></text><text x="225.984" y="-67.7" dominant-baseline="ideographic" fill="black" font-size="11" font-family="sans" text-anchor="start"><tspan x="225.984" dy="11">GPIO34</tspan></text><text x="217.88400000000001" y="-68.0" dominant-baseline="central" fill="black" font-size="14" font-family="sans" text-anchor="end"><tspan x="217.88400000000001" dy="14">ADC</tspan></text><text x="225.984" y="-103.7" dominant-baseline="ideographic" fill="black" font-size="11" font-family="sans" text-anchor="start"><tspan x="225.984" dy="11">GPIO26</tspan></text><text x="217.88400000000001" y="-104.0" dominant-baseline="central" fill="black" font-size="14" font-family="sans" text-anchor="end"><tspan x="217.88400000000001" dy="14">RLY</tspan></text><text x="225.984" y="-139.70000000000002" dominant-baseline="ideographic" fill="black" font-size="11" font-family="sans" text-anchor="start"><tspan x="225.984" dy="11">GPIO27</tspan></text><text x="217.88400000000001" y="-140.0" dominant-baseline="central" fill="black" font-size="14" font-family="sans" text-anchor="end"><tspan x="217.88400000000001" dy="14">ACK</tspan></text><text x="225.984" y="-175.70000000000002" dominant-baseline="ideographic" fill="black" font-size="11" font-family="sans" text-anchor="start"><tspan x="225.984" dy="11">GPIO2</tspan></text><text x="217.88400000000001" y="-176.0" dominant-baseline="central" fill="black" font-size="14" font-family="sans" text-anchor="end"><tspan x="217.88400000000001" dy="14">LED</tspan></text><text x="178.24200000000002" y="-72.6" dominant-baseline="central" fill="black" font-size="10" font-family="sans" text-anchor="middle"><tspan x="178.24200000000002" dy="10">ESP32-</tspan><tspan x="178.24200000000002" dy="10">DevKitC-32E</tspan></text><text x="32.4" y="-6.400000000000009" dominant-baseline="central" fill="black" font-size="10" font-family="sans" text-anchor="end"><tspan x="32.4" dy="10">+5V (isolated PSU)</tspan></text><text x="61.199999999999996" y="-78.39999999999999" dominant-baseline="central" fill="black" font-size="10" font-family="sans" text-anchor="end"><tspan x="61.199999999999996" dy="10">3V3</tspan></text><text x="369.984" y="45.699999999999996" dominant-baseline="ideographic" fill="black" font-size="11" font-family="sans" text-anchor="end"><tspan x="369.984" dy="11">SCK</tspan></text><text x="361.884" y="40.0" dominant-baseline="central" fill="black" font-size="14" font-family="sans" text-anchor="start"><tspan x="361.884" dy="14">SCK</tspan></text><text x="369.984" y="81.7" dominant-baseline="ideographic" fill="black" font-size="11" font-family="sans" text-anchor="end"><tspan x="369.984" dy="11">DO</tspan></text><text x="361.884" y="76.0" dominant-baseline="central" fill="black" font-size="14" font-family="sans" text-anchor="start"><tspan x="361.884" dy="14">DO</tspan></text><text x="369.984" y="117.70000000000002" dominant-baseline="ideographic" fill="black" font-size="11" font-family="sans" text-anchor="end"><tspan x="369.984" dy="11">CS</tspan></text><text x="361.884" y="112.0" dominant-baseline="central" fill="black" font-size="14" font-family="sans" text-anchor="start"><tspan x="361.884" dy="14">CS</tspan></text><text x="274.584" y="63.69999999999999" dominant-baseline="ideographic" fill="black" font-size="11" font-family="sans" text-anchor="start"><tspan x="274.584" dy="11">T+</tspan></text><text x="282.684" y="57.999999999999986" dominant-baseline="central" fill="black" font-size="14" font-family="sans" text-anchor="end"><tspan x="282.684" dy="14">TP</tspan></text><text x="274.584" y="99.69999999999999" dominant-baseline="ideographic" fill="black" font-size="11" font-family="sans" text-anchor="start"><tspan x="274.584" dy="11">T-</tspan></text><text x="282.684" y="93.99999999999999" dominant-baseline="central" fill="black" font-size="14" font-family="sans" text-anchor="end"><tspan x="282.684" dy="14">TM</tspan></text><text x="319.58399999999995" y="135.7" dominant-baseline="ideographic" fill="black" font-size="11" font-family="sans" text-anchor="start"><tspan x="319.58399999999995" dy="11">VCC</tspan></text><text x="322.284" y="124.6" dominant-baseline="hanging" fill="black" font-size="14" font-family="sans" text-anchor="middle"><tspan x="322.284" dy="14">VCC</tspan></text><text x="319.58400000000006" y="22.299999999999997" dominant-baseline="hanging" fill="black" font-size="11" font-family="sans" text-anchor="start"><tspan x="319.58400000000006" dy="11">GND</tspan></text><text x="322.284" y="27.4" dominant-baseline="ideographic" fill="black" font-size="14" font-family="sans" text-anchor="middle"><tspan x="322.284" dy="14">GND</tspan></text><text x="318.684" y="83.6" dominant-baseline="central" fill="black" font-size="10" font-family="sans" text-anchor="middle"><tspan x="318.684" dy="10">MAX31855</tspan></text><text x="318.684" y="112.39999999999999" dominant-baseline="central" fill="black" font-size="10" font-family="sans" text-anchor="end"><tspan x="318.684" dy="10">3V3</tspan></text><text x="334.884" y="53.39999999999998" dominant-baseline="central" fill="black" font-size="10" font-family="sans" text-anchor="start"><tspan x="334.884" dy="10">TC+ (yellow)</tspan><tspan x="334.884" dy="10">to winding K-type</tspan></text><text x="334.884" y="89.39999999999998" dominant-baseline="central" fill="black" font-size="10" font-family="sans" text-anchor="start"><tspan x="334.884" dy="10">TC- (red)</tspan><tspan x="334.884" dy="10">to winding K-type</tspan></text><text x="241.28400000000002" y="-139.6" dominant-baseline="ideographic" fill="black" font-size="10" font-family="sans" text-anchor="middle"><tspan x="241.28400000000002" dy="10">10k 1%</tspan></text><text x="237.68400000000003" y="-161.2" dominant-baseline="central" fill="black" font-size="10" font-family="sans" text-anchor="end"><tspan x="237.68400000000003" dy="10">3V3</tspan></text><text x="295.284" y="-87.6" dominant-baseline="ideographic" fill="black" font-size="10" font-family="sans" text-anchor="middle"><tspan x="295.284" dy="10">NTC 10k</tspan><tspan x="295.284" dy="10">B3950</tspan><tspan x="295.284" dy="10">(frame)</tspan></text><text x="331.284" y="-113.60000000000001" dominant-baseline="ideographic" fill="black" font-size="10" font-family="sans" text-anchor="middle"><tspan x="331.284" dy="10">10k</tspan><tspan x="331.284" dy="10">pulldown</tspan></text><text x="405.984" y="-85.7" dominant-baseline="ideographic" fill="black" font-size="11" font-family="sans" text-anchor="end"><tspan x="405.984" dy="11">IN</tspan></text><text x="403.284" y="-80.60000000000001" dominant-baseline="central" fill="black" font-size="14" font-family="sans" text-anchor="start"><tspan x="403.284" dy="14">IN</tspan></text><text x="369.984" y="9.700000000000006" dominant-baseline="ideographic" fill="black" font-size="11" font-family="sans" text-anchor="start"><tspan x="369.984" dy="11">COM</tspan></text><text x="367.284" y="-1.3999999999999968" dominant-baseline="central" fill="black" font-size="14" font-family="sans" text-anchor="end"><tspan x="367.284" dy="14">COM</tspan></text><text x="405.984" y="9.700000000000006" dominant-baseline="ideographic" fill="black" font-size="11" font-family="sans" text-anchor="start"><tspan x="405.984" dy="11">NO</tspan></text><text x="403.284" y="-1.3999999999999968" dominant-baseline="central" fill="black" font-size="14" font-family="sans" text-anchor="end"><tspan x="403.284" dy="14">NO</tspan></text><text x="441.984" y="9.700000000000006" dominant-baseline="ideographic" fill="black" font-size="11" font-family="sans" text-anchor="start"><tspan x="441.984" dy="11">NC</tspan></text><text x="439.284" y="-1.3999999999999968" dominant-baseline="central" fill="black" font-size="14" font-family="sans" text-anchor="end"><tspan x="439.284" dy="14">NC</tspan></text><text x="459.984" y="-35.3" dominant-baseline="ideographic" fill="black" font-size="11" font-family="sans" text-anchor="start"><tspan x="459.984" dy="11">VCC</tspan></text><text x="451.884" y="-40.99999999999999" dominant-baseline="hanging" fill="black" font-size="14" font-family="sans" text-anchor="middle"><tspan x="451.884" dy="14">VCC</tspan></text><text x="346.58399999999995" y="-35.30000000000001" dominant-baseline="hanging" fill="black" font-size="11" font-family="sans" text-anchor="start"><tspan x="346.58399999999995" dy="11">GND</tspan></text><text x="354.684" y="-41.00000000000001" dominant-baseline="ideographic" fill="black" font-size="14" font-family="sans" text-anchor="middle"><tspan x="354.684" dy="14">GND</tspan></text><text x="406.884" y="-48.4" dominant-baseline="central" fill="black" font-size="10" font-family="sans" text-anchor="middle"><tspan x="406.884" dy="10">Relay module</tspan><tspan x="406.884" dy="10">opto-isolated</tspan><tspan x="406.884" dy="10">active-HIGH</tspan><tspan x="406.884" dy="10">N.O.</tspan></text><text x="471.684" y="-76.6" dominant-baseline="central" fill="black" font-size="10" font-family="sans" text-anchor="end"><tspan x="471.684" dy="10">+5V</tspan></text><text x="442.884" y="17.4" dominant-baseline="central" fill="black" font-size="10" font-family="sans" text-anchor="start"><tspan x="442.884" dy="10">COM →</tspan><tspan x="442.884" dy="10">thermostat NC contact</tspan></text><text x="478.884" y="17.4" dominant-baseline="central" fill="black" font-size="10" font-family="sans" text-anchor="start"><tspan x="478.884" dy="10">NO →</tspan><tspan x="478.884" dy="10">contactor coil</tspan></text><text x="514.884" y="22.4" dominant-baseline="central" fill="black" font-size="10" font-family="sans" text-anchor="start"><tspan x="514.884" dy="10">(NC — leave open)</tspan></text><text x="338.124" y="-149.6" dominant-baseline="ideographic" fill="black" font-size="10" font-family="sans" text-anchor="middle"><tspan x="338.124" dy="10">ACK</tspan><tspan x="338.124" dy="10">button</tspan></text><text x="334.884" y="-175.6" dominant-baseline="central" fill="black" font-size="10" font-family="sans" text-anchor="start"><tspan x="334.884" dy="10">→ onboard blue LED (DevKitC)</tspan></text><text x="32.4" y="15.600000000000009" dominant-baseline="central" fill="black" font-size="10" font-family="sans" text-anchor="middle"><tspan x="32.4" dy="10">Table saw thermal supervisor — low-voltage side (5 V / 3.3 V)</tspan><tspan x="32.4" dy="10" /><tspan x="32.4" dy="10">Isolation boundaries external to this sheet:</tspan><tspan x="32.4" dy="10">  - AC-DC PSU input: reinforced isolation (Mean Well IRM-05-5 or equivalent)</tspan><tspan x="32.4" dy="10">  - Thermocouple:  AlN substrate at winding, dielectric to line potential</tspan><tspan x="32.4" dy="10">  - Relay:         opto-input / contact-gap output</tspan><tspan x="32.4" dy="10" /><tspan x="32.4" dy="10">SR-1: relay is NO, energized-to-close. Floating GPIO26 = relay open.</tspan><tspan x="32.4" dy="10">SR-3: passive thermostat is in series ahead of the relay COM (mains side).</tspan><tspan x="32.4" dy="10" /><tspan x="32.4" dy="10">Not shown: mains coil circuit (see hardware/harness/mains_and_coil.svg).</tspan></text><circle cx="108" cy="-0" r="2.7" style="stroke:black;fill:black;stroke-width:2.0;stroke-dasharray:-;" /><circle cx="108" cy="-108" r="2.7" style="stroke:black;fill:black;stroke-width:2.0;stroke-dasharray:-;" /><circle cx="108" cy="-72" r="2.7" style="stroke:black;fill:black;stroke-width:2.0;stroke-dasharray:-;" /><circle cx="241.284" cy="-54" r="2.7" style="stroke:black;fill:black;stroke-width:2.0;stroke-dasharray:-;" /><circle cx="331.284" cy="-90" r="2.7" style="stroke:black;fill:black;stroke-width:2.0;stroke-dasharray:-;" /></svg>